{"title":"Inside Amy Schumer S04E02 1080p WebRip H 264 AAC2 0-RnC mkv","uid":14476762,"size":675272128,"categoryP":"video","categoryS":"hd___tv_shows","magnet":"?xt=urn:btih:9373cebcec10d08947a1cce82990fe87a6432aaa&amp;dn=Inside+Amy+Schumer+S04E02+1080p+WebRip+H+264+AAC2+0-RnC+mkv&amp;tr=udp%3A%2F%2Ftracker.leechers-paradise.org%3A6969&amp;tr=udp%3A%2F%2Fzer0day.ch%3A1337&amp;tr=udp%3A%2F%2Fopen.demonii.com%3A1337&amp;tr=udp%3A%2F%2Ftracker.coppersurfer.tk%3A6969&amp;tr=udp%3A%2F%2Fexodus.desync.com%3A6969","seeders":1,"leechers":1,"uploader":"Anon_up","files":1,"time":1461952202,"description":"[center]If you like my encodes/uploads\r\n[color=orange]Donate Bitcoin :[/color] [color=green]1PWLan3jUdKdofaXUuRHMEM6m17E9v2fP6[/color]\r\n\r\n[img]https://i.imgur.com/p94fYT2.png[/img]\r\n\r\nScreenShots\r\n[img]https://i.imgur.com/0J4efoX.jpg[/img]\r\n\r\n\r\nInfo[quote]\r\n\r\n\r\nWelcome to the Gun Show\r\n\r\n Season 4, Ep 2 04/28/2016 \r\n\r\nAmy hosts a home shopping show for gun enthusiasts, faces the wrath of a new Twitter feature and lands a role on &quot;Game of Thrones.&quot; (21:15)\r\n\r\n\r\nUse Torrent\r\nand a client that supports HTTPS Seeding\r\nPermanent WebSeed eg: Vuze\r\n\r\n[/quote]\r\n\r\n\r\n\r\n[spoiler=&quot;MediaInfo&quot;]\r\n\r\nGeneral\r\nUnique ID : 203668172906121398825943192034317868908 (0x99391033E519740DBE8513C827829F6C)\r\nComplete name : Inside.Amy.Schumer.S04E02.Welcome.to.the.Gun.Show.1080p.WebRip.H.264.AAC2.0-RnC.mkv\r\nFormat : Matroska\r\nFormat version : Version 4 / Version 2\r\nFile size : 644 MiB\r\nDuration : 21mn 15s\r\nOverall bit rate : 4 236 Kbps\r\nMovie name : RnC | Inside Amy Schumer S04E02 Welcome to the Gun Show\r\nEncoded date : UTC 2016-04-29 14:30:33\r\nWriting application : mkvmerge v9.1.0 ('Little Earthquakes') 32bit\r\nWriting library : libebml v1.3.3 + libmatroska v1.4.4\r\n\r\nVideo\r\nID : 1\r\nFormat : AVC\r\nFormat/Info : Advanced Video Codec\r\nFormat profile :   \r\nFormat settings, CABAC : Yes\r\nFormat settings, ReFrames : 4 frames\r\nCodec ID : V_MPEG4/ISO/AVC\r\nDuration : 21mn 15s\r\nBit rate : 4 105 Kbps\r\nWidth : 1 920 pixels\r\nHeight : 1 080 pixels\r\nDisplay aspect ratio : 16:9\r\nFrame rate mode : Constant\r\nFrame rate : 23.976 (24000/1001) fps\r\nColor space : YUV\r\nChroma subsampling : 4:2:0\r\nBit depth : 8 bits\r\nScan type : Progressive\r\nBits/(Pixel*Frame) : 0.083\r\nStream size : 624 MiB (97%)\r\nWriting library : x264 core 138\r\nEncoding settings : cabac=1 / ref=4 / deblock=1:0:0 / analyse=0x3:0x113 / me=umh / subme=10 / psy=1 / psy_rd=1.00:0.15 / mixed_ref=1 / me_range=32 / chroma_me=1 / trellis=2 / 8x8dct=1 / cqm=0 / deadzone=21,11 / fast_pskip=1 / chroma_qp_offset=-3 / threads=32 / lookahead_threads=2 / sliced_threads=0 / nr=0 / decimate=0 / interlaced=0 / bluray_compat=0 / constrained_intra=0 / bframes=3 / b_pyramid=0 / b_adapt=2 / b_bias=0 / direct=3 / weightb=1 / open_gop=0 / weightp=2 / keyint=48 / keyint_min=23 / scenecut=0 / intra_refresh=0 / rc_lookahead=48 / rc=crf / mbtree=1 / crf=19.0 / qcomp=0.60 / qpmin=10 / qpmax=51 / qpstep=4 / vbv_maxrate=5000 / vbv_bufsize=10000 / crf_max=0.0 / nal_hrd=none / filler=0 / ip_ratio=1.40 / aq=1:0.80\r\nLanguage : English\r\nDefault : Yes\r\nForced : No\r\n\r\nAudio\r\nID : 2\r\nFormat : AAC\r\nFormat/Info : Advanced Audio Codec\r\nFormat profile : LC\r\nCodec ID : A_AAC\r\nDuration : 21mn 15s\r\nBit rate : 128 Kbps\r\nChannel(s) : 2 channels\r\nChannel positions : Front: L R\r\nSampling rate : 48.0 KHz\r\nFrame rate : 46.875 fps (1024 spf)\r\nCompression mode : Lossy\r\nStream size : 19.5 MiB (3%)\r\nLanguage : English\r\nDefault : Yes\r\nForced : No\r\n\r\nText\r\nID : 3\r\nFormat : UTF-8\r\nCodec ID : S_TEXT/UTF8\r\nCodec ID/Info : UTF-8 Plain Text\r\nDuration : 21mn 13s\r\nBit rate : 171 bps\r\nCount of elements : 632\r\nStream size : 26.7 KiB (0%)\r\nLanguage : English\r\nDefault : Yes\r\nForced : No\r\n\r\n\r\n[/spoiler]\r\n[/center]","torrent":{"xt":"urn:btih:9373cebcec10d08947a1cce82990fe87a6432aaa","amp;dn":"Inside+Amy+Schumer+S04E02+1080p+WebRip+H+264+AAC2+0-RnC+mkv","amp;tr":["udp%3A%2F%2Ftracker.leechers-paradise.org%3A6969","udp%3A%2F%2Fzer0day.ch%3A1337","udp%3A%2F%2Fopen.demonii.com%3A1337","udp%3A%2F%2Ftracker.coppersurfer.tk%3A6969","udp%3A%2F%2Fexodus.desync.com%3A6969"],"infoHash":"9373cebcec10d08947a1cce82990fe87a6432aaa","infoHashBuffer":{"type":"Buffer","data":[147,115,206,188,236,16,208,137,71,161,204,232,41,144,254,135,166,67,42,170]},"announce":[],"urlList":[]}}